<svg viewBox="0 0 16 16" xmlns="http://www.w3.org/2000/svg"><path d="M13.353 11.604c1.583 0 2.647-1.726 2.647-3.335 0-1.168-.72-1.328-1.427-1.328-.203 0-.418.015-.65.03l-.57.022v-.052H.087c0 2.499 1.404 4.666 3.47 5.782-2.116.139-3.557.41-3.557.726 0 .456 3.01.825 6.72.825 3.713 0 6.72-.369 6.72-.825 0-.317-1.447-.59-3.57-.726a6.638 6.638 0 001.656-1.258c.563.139 1.226.139 1.827.139zm-.026-4.152c.215-.003.424-.011.625-.026.223-.011.435-.023.621-.023.668 0 .968.125.968.866 0 1.36-.9 2.876-2.188 2.876-.567 0-1.063-.012-1.47-.078a6.508 6.508 0 001.444-3.615zm-7.574-1.8a1.273 1.273 0 01.008-1.764c.962-1.163 0-2.15-.008-2.162l-.21.21a1.273 1.273 0 01-.011 1.763c-.962 1.162 0 2.15.012 2.161zm1.147 0a1.273 1.273 0 01.01-1.764c.96-1.163 0-2.15-.01-2.162l-.209.21a1.273 1.273 0 01-.009 1.763c-.964 1.162 0 2.15.01 2.161zm1.25 0a1.273 1.273 0 01.008-1.764c.965-1.163 0-2.15-.008-2.162l-.21.21c.03.028.78.81-.011 1.763-.959 1.162 0 2.15.011 2.161z" fill="currentColor" color="#2e3434"/></svg>