<svg viewBox="0 0 64 64" xmlns:xlink="http://www.w3.org/1999/xlink" xmlns="http://www.w3.org/2000/svg"><defs><linearGradient id="prefix__a"><stop offset="0" stop-color="#b2babf"/><stop offset="1" stop-color="#f2f3f3"/></linearGradient><linearGradient id="prefix__d" x1="34.705" x2="34.705" y1="-30.727" y2="-38.74" gradientTransform="translate(-1.086 27.968) scale(.5297)" gradientUnits="userSpaceOnUse"><stop stop-color="#efb63f" offset="0"/><stop stop-color="#f8d650" offset="1"/></linearGradient><linearGradient id="prefix__e" x1="32.125" x2="32.125" y1="-29.828" y2="-39.838" gradientTransform="translate(-1.086 27.968) scale(.5297)" gradientUnits="userSpaceOnUse"><stop stop-color="#a88a47" offset="0"/><stop stop-color="#d7cfa7" offset="1"/></linearGradient><linearGradient id="prefix__f" x1="34.705" x2="34.705" y1="-30.727" y2="-38.74" gradientTransform="translate(-8.67 27.968) scale(.5297)" gradientUnits="userSpaceOnUse"><stop stop-color="#68d848" offset="0"/><stop stop-color="#99f27b" offset="1"/></linearGradient><linearGradient id="prefix__g" x1="32.125" x2="32.125" y1="-29.828" y2="-39.838" gradientTransform="translate(-8.67 27.968) scale(.5297)" gradientUnits="userSpaceOnUse"><stop stop-color="#5a9555" offset="0"/><stop stop-color="#ccf4bd" offset="1"/></linearGradient><linearGradient id="prefix__h" x1="34.705" x2="34.705" y1="-30.727" y2="-38.74" gradientTransform="translate(6.28 27.968) scale(.5297)" gradientUnits="userSpaceOnUse"><stop stop-color="#e07f3e" offset="0"/><stop stop-color="#f1a73e" offset="1"/></linearGradient><linearGradient id="prefix__i" x1="32.125" x2="32.125" y1="-29.828" y2="-39.838" gradientTransform="translate(6.28 27.968) scale(.5297)" gradientUnits="userSpaceOnUse"><stop stop-color="#ae714f" offset="0"/><stop stop-color="#ffdc8f" offset="1"/></linearGradient><linearGradient id="prefix__j" x1="34.705" x2="34.705" y1="-30.727" y2="-38.74" gradientTransform="translate(-8.67 35.368) scale(.5297)" gradientUnits="userSpaceOnUse"><stop stop-color="#b9281b" offset="0"/><stop stop-color="#e54e3b" offset="1"/></linearGradient><linearGradient id="prefix__k" x1="32.125" x2="32.125" y1="-29.828" y2="-39.838" gradientTransform="translate(-8.67 35.368) scale(.5297)" gradientUnits="userSpaceOnUse"><stop stop-color="#84281e" offset="0"/><stop stop-color="#df8881" offset="1"/></linearGradient><linearGradient id="prefix__l" x1="34.705" x2="34.705" y1="-30.727" y2="-38.74" gradientTransform="translate(-1.086 35.368) scale(.5297)" gradientUnits="userSpaceOnUse"><stop stop-color="#878887" offset="0"/><stop stop-color="#d8e3e9" offset="1"/></linearGradient><linearGradient id="prefix__m" x1="32.125" x2="32.125" y1="-29.828" y2="-39.838" gradientTransform="translate(-1.086 35.368) scale(.5297)" gradientUnits="userSpaceOnUse"><stop stop-color="#6c6c6a" offset="0"/><stop stop-color="#e3ebef" offset="1"/></linearGradient><linearGradient id="prefix__n" x1="34.705" x2="34.705" y1="-30.727" y2="-38.74" gradientTransform="translate(6.28 35.368) scale(.5297)" gradientUnits="userSpaceOnUse"><stop stop-color="#e76872" offset="0"/><stop stop-color="#ea4f66" offset="1"/></linearGradient><linearGradient id="prefix__o" x1="32.125" x2="32.125" y1="-29.828" y2="-39.838" gradientTransform="translate(6.28 35.368) scale(.5297)" gradientUnits="userSpaceOnUse"><stop stop-color="#ab5863" offset="0"/><stop stop-color="#d7798a" offset="1"/></linearGradient><linearGradient id="prefix__p" x1="34.705" x2="34.705" y1="-30.727" y2="-38.74" gradientTransform="translate(-8.67 42.768) scale(.5297)" gradientUnits="userSpaceOnUse"><stop stop-color="#783bb3" offset="0"/><stop stop-color="#b76de6" offset="1"/></linearGradient><linearGradient id="prefix__q" x1="32.125" x2="32.125" y1="-29.828" y2="-39.838" gradientTransform="translate(-8.67 42.768) scale(.5297)" gradientUnits="userSpaceOnUse"><stop stop-color="#4b2677" offset="0"/><stop stop-color="#b481d5" offset=".946"/><stop stop-color="#ddc9ec" offset="1"/></linearGradient><linearGradient id="prefix__r" x1="34.705" x2="34.705" y1="-30.727" y2="-38.74" gradientTransform="translate(-1.086 42.768) scale(.5297)" gradientUnits="userSpaceOnUse"><stop stop-color="#3468e0" offset="0"/><stop stop-color="#61dafc" offset="1"/></linearGradient><linearGradient id="prefix__s" x1="32.125" x2="32.125" y1="-29.828" y2="-39.838" gradientTransform="translate(-1.086 42.768) scale(.5297)" gradientUnits="userSpaceOnUse"><stop stop-color="#29438e" offset="0"/><stop stop-color="#90dcec" offset=".946"/><stop stop-color="#abe2eb" offset="1"/></linearGradient><linearGradient id="prefix__t" x1="34.705" x2="34.705" y1="-30.727" y2="-38.74" gradientTransform="translate(6.28 42.768) scale(.5297)" gradientUnits="userSpaceOnUse"><stop stop-color="#5bc18f" offset="0"/><stop stop-color="#84e4dd" offset="1"/></linearGradient><linearGradient id="prefix__u" x1="32.125" x2="32.125" y1="-29.828" y2="-39.838" gradientTransform="translate(6.28 42.768) scale(.5297)" gradientUnits="userSpaceOnUse"><stop stop-color="#3f8264" offset="0"/><stop stop-color="#a2e1e0" offset=".946"/><stop stop-color="#b8e4e2" offset="1"/></linearGradient><linearGradient xlink:href="#prefix__a" id="prefix__b" x1="32.111" y1="60.333" x2="32.111" y2="4.333" gradientUnits="userSpaceOnUse"/><filter id="prefix__c" x="-.012" y="-.012" width="1.024" height="1.024" color-interpolation-filters="sRGB"><feGaussianBlur stdDeviation=".074"/></filter></defs><path d="M20.37 4.333c-5.781 0-9.742 1.724-12.32 4.535-2.566 2.796-3.94 6.804-3.94 11.341v24.248c0 4.538 1.374 8.545 3.94 11.341 2.578 2.81 6.539 4.535 12.32 4.535h23.55c5.782 0 9.743-1.724 12.321-4.535 2.565-2.796 3.87-6.435 3.87-11.341V21.12c0-5.935-1.305-9.456-3.87-12.253-2.578-2.81-6.54-4.534-12.321-4.534H25.605z" fill="url(#prefix__b)"/><path d="M5.36 1.058c-1.53 0-2.577.457-3.26 1.2-.678.74-1.042 1.8-1.042 3.001v6.415c0 1.2.364 2.26 1.043 3 .682.744 1.73 1.2 3.26 1.2h6.23c1.53 0 2.577-.456 3.26-1.2.678-.739 1.024-1.702 1.024-3V5.5c0-1.57-.346-2.502-1.024-3.242-.683-.743-1.73-1.2-3.26-1.2H6.745zm0 .264h6.232c1.477 0 2.437.432 3.064 1.116.634.69.954 1.53.954 3.062v6.174c0 1.251-.322 2.134-.954 2.822-.627.684-1.587 1.114-3.064 1.114H5.359c-1.477 0-2.437-.43-3.064-1.114-.625-.682-.973-1.675-.973-2.822V5.26c0-1.148.348-2.14.973-2.822.627-.684 1.587-1.116 3.064-1.116z" fill="#fff" filter="url(#prefix__c)" transform="scale(3.7796)"/><g color="#000"><path d="M15.113 6.97h3.859c.423 0 .763.341.763.764v3.612c0 .423-.34.764-.763.764h-3.859a.762.762 0 01-.764-.764V7.734c0-.423.341-.763.764-.763z" fill="url(#prefix__d)" style="font-variant-ligatures:normal;font-variant-position:normal;font-variant-caps:normal;font-variant-numeric:normal;font-variant-alternates:normal;font-variant-east-asian:normal;font-feature-settings:normal;font-variation-settings:normal;text-indent:0;text-decoration-line:none;text-decoration-style:solid;text-decoration-color:#000;text-transform:none;text-orientation:mixed;white-space:normal;shape-padding:0;shape-margin:0;inline-size:0;isolation:auto;mix-blend-mode:normal" transform="matrix(1.91183 0 0 1.91183 -.374 -.388)"/><path d="M15.113 6.758a.98.98 0 00-.977.976v3.613c0 .537.44.973.977.973h3.86a.977.977 0 00.976-.973V7.734a.98.98 0 00-.977-.976zm0 .425h3.86c.309 0 .55.242.55.551v3.613c0 .31-.241.551-.55.551h-3.86a.544.544 0 01-.55-.55V7.733c0-.31.24-.55.55-.55z" fill="url(#prefix__e)" style="font-variant-ligatures:normal;font-variant-position:normal;font-variant-caps:normal;font-variant-numeric:normal;font-variant-alternates:normal;font-variant-east-asian:normal;font-feature-settings:normal;font-variation-settings:normal;text-indent:0;text-decoration-line:none;text-decoration-style:solid;text-decoration-color:#000;text-transform:none;text-orientation:mixed;white-space:normal;shape-padding:0;shape-margin:0;inline-size:0;isolation:auto;mix-blend-mode:normal" transform="matrix(1.91183 0 0 1.91183 -.374 -.388)"/><path d="M7.53 6.97h3.858c.423 0 .764.341.764.764v3.612c0 .423-.34.764-.764.764H7.53a.762.762 0 01-.764-.764V7.734c0-.423.34-.763.764-.763z" fill="url(#prefix__f)" style="font-variant-ligatures:normal;font-variant-position:normal;font-variant-caps:normal;font-variant-numeric:normal;font-variant-alternates:normal;font-variant-east-asian:normal;font-feature-settings:normal;font-variation-settings:normal;text-indent:0;text-decoration-line:none;text-decoration-style:solid;text-decoration-color:#000;text-transform:none;text-orientation:mixed;white-space:normal;shape-padding:0;shape-margin:0;inline-size:0;isolation:auto;mix-blend-mode:normal" transform="matrix(1.91183 0 0 1.91183 -.374 -.388)"/><path d="M7.531 6.758a.98.98 0 00-.976.976v3.613c0 .537.44.973.976.973h3.856a.976.976 0 00.976-.973V7.734a.98.98 0 00-.976-.976zm0 .425h3.856c.309 0 .554.242.554.551v3.613c0 .31-.245.551-.554.551H7.53a.548.548 0 01-.554-.55V7.733c0-.31.245-.55.554-.55z" fill="url(#prefix__g)" style="font-variant-ligatures:normal;font-variant-position:normal;font-variant-caps:normal;font-variant-numeric:normal;font-variant-alternates:normal;font-variant-east-asian:normal;font-feature-settings:normal;font-variation-settings:normal;text-indent:0;text-decoration-line:none;text-decoration-style:solid;text-decoration-color:#000;text-transform:none;text-orientation:mixed;white-space:normal;shape-padding:0;shape-margin:0;inline-size:0;isolation:auto;mix-blend-mode:normal" transform="matrix(1.91183 0 0 1.91183 -.374 -.388)"/><path d="M22.478 6.97h3.859c.423 0 .763.341.763.764v3.612c0 .423-.34.764-.763.764h-3.859a.762.762 0 01-.764-.764V7.734c0-.423.341-.763.764-.763z" fill="url(#prefix__h)" style="font-variant-ligatures:normal;font-variant-position:normal;font-variant-caps:normal;font-variant-numeric:normal;font-variant-alternates:normal;font-variant-east-asian:normal;font-feature-settings:normal;font-variation-settings:normal;text-indent:0;text-decoration-line:none;text-decoration-style:solid;text-decoration-color:#000;text-transform:none;text-orientation:mixed;white-space:normal;shape-padding:0;shape-margin:0;inline-size:0;isolation:auto;mix-blend-mode:normal" transform="matrix(1.91183 0 0 1.91183 -.374 -.388)"/><path d="M22.476 6.758a.977.977 0 00-.973.976v3.613c0 .537.436.973.973.973h3.86a.977.977 0 00.976-.973V7.734a.98.98 0 00-.977-.976zm0 .425h3.86c.309 0 .55.242.55.551v3.613c0 .31-.241.551-.55.551h-3.86a.544.544 0 01-.55-.55V7.733c0-.31.24-.55.55-.55z" fill="url(#prefix__i)" style="font-variant-ligatures:normal;font-variant-position:normal;font-variant-caps:normal;font-variant-numeric:normal;font-variant-alternates:normal;font-variant-east-asian:normal;font-feature-settings:normal;font-variation-settings:normal;text-indent:0;text-decoration-line:none;text-decoration-style:solid;text-decoration-color:#000;text-transform:none;text-orientation:mixed;white-space:normal;shape-padding:0;shape-margin:0;inline-size:0;isolation:auto;mix-blend-mode:normal" transform="matrix(1.91183 0 0 1.91183 -.374 -.388)"/><path d="M7.53 14.371h3.858c.423 0 .764.34.764.764v3.612c0 .423-.34.763-.764.763H7.53a.762.762 0 01-.764-.763v-3.612c0-.423.34-.764.764-.764z" fill="url(#prefix__j)" style="font-variant-ligatures:normal;font-variant-position:normal;font-variant-caps:normal;font-variant-numeric:normal;font-variant-alternates:normal;font-variant-east-asian:normal;font-feature-settings:normal;font-variation-settings:normal;text-indent:0;text-decoration-line:none;text-decoration-style:solid;text-decoration-color:#000;text-transform:none;text-orientation:mixed;white-space:normal;shape-padding:0;shape-margin:0;inline-size:0;isolation:auto;mix-blend-mode:normal" transform="matrix(1.91183 0 0 1.91183 -.374 -.388)"/><path d="M7.531 14.16a.98.98 0 00-.976.977v3.609c0 .537.44.977.976.977h3.856a.98.98 0 00.976-.977v-3.61a.98.98 0 00-.976-.976zm0 .422h3.856a.55.55 0 01.554.555v3.609a.55.55 0 01-.554.555H7.53a.55.55 0 01-.554-.555v-3.61a.55.55 0 01.554-.554z" fill="url(#prefix__k)" style="font-variant-ligatures:normal;font-variant-position:normal;font-variant-caps:normal;font-variant-numeric:normal;font-variant-alternates:normal;font-variant-east-asian:normal;font-feature-settings:normal;font-variation-settings:normal;text-indent:0;text-decoration-line:none;text-decoration-style:solid;text-decoration-color:#000;text-transform:none;text-orientation:mixed;white-space:normal;shape-padding:0;shape-margin:0;inline-size:0;isolation:auto;mix-blend-mode:normal" transform="matrix(1.91183 0 0 1.91183 -.374 -.388)"/><path d="M15.113 14.371h3.859c.423 0 .763.34.763.764v3.612c0 .423-.34.763-.763.763h-3.859a.762.762 0 01-.764-.763v-3.612c0-.423.341-.764.764-.764z" fill="url(#prefix__l)" style="font-variant-ligatures:normal;font-variant-position:normal;font-variant-caps:normal;font-variant-numeric:normal;font-variant-alternates:normal;font-variant-east-asian:normal;font-feature-settings:normal;font-variation-settings:normal;text-indent:0;text-decoration-line:none;text-decoration-style:solid;text-decoration-color:#000;text-transform:none;text-orientation:mixed;white-space:normal;shape-padding:0;shape-margin:0;inline-size:0;isolation:auto;mix-blend-mode:normal" transform="matrix(1.91183 0 0 1.91183 -.374 -.388)"/><path d="M15.113 14.16a.98.98 0 00-.977.977v3.609c0 .537.44.977.977.977h3.86a.98.98 0 00.976-.977v-3.61a.98.98 0 00-.977-.976zm0 .422h3.86c.309 0 .55.245.55.555v3.609c0 .31-.241.555-.55.555h-3.86a.548.548 0 01-.55-.555v-3.61c0-.309.24-.554.55-.554z" fill="url(#prefix__m)" style="font-variant-ligatures:normal;font-variant-position:normal;font-variant-caps:normal;font-variant-numeric:normal;font-variant-alternates:normal;font-variant-east-asian:normal;font-feature-settings:normal;font-variation-settings:normal;text-indent:0;text-decoration-line:none;text-decoration-style:solid;text-decoration-color:#000;text-transform:none;text-orientation:mixed;white-space:normal;shape-padding:0;shape-margin:0;inline-size:0;isolation:auto;mix-blend-mode:normal" transform="matrix(1.91183 0 0 1.91183 -.374 -.388)"/><path d="M22.478 14.371h3.859c.423 0 .763.34.763.764v3.612c0 .423-.34.763-.763.763h-3.859a.762.762 0 01-.764-.763v-3.612c0-.423.341-.764.764-.764z" fill="url(#prefix__n)" style="font-variant-ligatures:normal;font-variant-position:normal;font-variant-caps:normal;font-variant-numeric:normal;font-variant-alternates:normal;font-variant-east-asian:normal;font-feature-settings:normal;font-variation-settings:normal;text-indent:0;text-decoration-line:none;text-decoration-style:solid;text-decoration-color:#000;text-transform:none;text-orientation:mixed;white-space:normal;shape-padding:0;shape-margin:0;inline-size:0;isolation:auto;mix-blend-mode:normal" transform="matrix(1.91183 0 0 1.91183 -.374 -.388)"/><path d="M22.476 14.16a.977.977 0 00-.973.977v3.609c0 .537.436.977.973.977h3.86a.98.98 0 00.976-.977v-3.61a.98.98 0 00-.977-.976zm0 .422h3.86c.309 0 .55.245.55.555v3.609c0 .31-.241.555-.55.555h-3.86a.548.548 0 01-.55-.555v-3.61c0-.309.24-.554.55-.554z" fill="url(#prefix__o)" style="font-variant-ligatures:normal;font-variant-position:normal;font-variant-caps:normal;font-variant-numeric:normal;font-variant-alternates:normal;font-variant-east-asian:normal;font-feature-settings:normal;font-variation-settings:normal;text-indent:0;text-decoration-line:none;text-decoration-style:solid;text-decoration-color:#000;text-transform:none;text-orientation:mixed;white-space:normal;shape-padding:0;shape-margin:0;inline-size:0;isolation:auto;mix-blend-mode:normal" transform="matrix(1.91183 0 0 1.91183 -.374 -.388)"/><path d="M7.53 21.774h3.858c.423 0 .764.34.764.764v3.612c0 .423-.34.763-.764.763H7.53a.762.762 0 01-.764-.763v-3.612c0-.423.34-.764.764-.764z" fill="url(#prefix__p)" style="font-variant-ligatures:normal;font-variant-position:normal;font-variant-caps:normal;font-variant-numeric:normal;font-variant-alternates:normal;font-variant-east-asian:normal;font-feature-settings:normal;font-variation-settings:normal;text-indent:0;text-decoration-line:none;text-decoration-style:solid;text-decoration-color:#000;text-transform:none;text-orientation:mixed;white-space:normal;shape-padding:0;shape-margin:0;inline-size:0;isolation:auto;mix-blend-mode:normal" transform="matrix(1.91183 0 0 1.91183 -.374 -.388)"/><path d="M7.531 21.562a.977.977 0 00-.976.973v3.613c0 .537.44.976.976.976h3.856a.98.98 0 00.976-.976v-3.613a.977.977 0 00-.976-.973zm0 .422h3.856c.309 0 .554.241.554.55v3.614c0 .31-.245.55-.554.55H7.53a.548.548 0 01-.554-.55v-3.613c0-.31.245-.551.554-.551z" fill="url(#prefix__q)" style="font-variant-ligatures:normal;font-variant-position:normal;font-variant-caps:normal;font-variant-numeric:normal;font-variant-alternates:normal;font-variant-east-asian:normal;font-feature-settings:normal;font-variation-settings:normal;text-indent:0;text-decoration-line:none;text-decoration-style:solid;text-decoration-color:#000;text-transform:none;text-orientation:mixed;white-space:normal;shape-padding:0;shape-margin:0;inline-size:0;isolation:auto;mix-blend-mode:normal" transform="matrix(1.91183 0 0 1.91183 -.374 -.388)"/><path d="M15.113 21.774h3.859c.423 0 .763.34.763.764v3.612c0 .423-.34.763-.763.763h-3.859a.762.762 0 01-.764-.763v-3.612c0-.423.341-.764.764-.764z" fill="url(#prefix__r)" style="font-variant-ligatures:normal;font-variant-position:normal;font-variant-caps:normal;font-variant-numeric:normal;font-variant-alternates:normal;font-variant-east-asian:normal;font-feature-settings:normal;font-variation-settings:normal;text-indent:0;text-decoration-line:none;text-decoration-style:solid;text-decoration-color:#000;text-transform:none;text-orientation:mixed;white-space:normal;shape-padding:0;shape-margin:0;inline-size:0;isolation:auto;mix-blend-mode:normal" transform="matrix(1.91183 0 0 1.91183 -.374 -.388)"/><path d="M15.113 21.562a.977.977 0 00-.977.973v3.613c0 .537.44.976.977.976h3.86a.98.98 0 00.976-.976v-3.613a.977.977 0 00-.977-.973zm0 .422h3.86c.309 0 .55.241.55.55v3.614c0 .31-.241.55-.55.55h-3.86a.544.544 0 01-.55-.55v-3.613c0-.31.24-.551.55-.551z" fill="url(#prefix__s)" style="font-variant-ligatures:normal;font-variant-position:normal;font-variant-caps:normal;font-variant-numeric:normal;font-variant-alternates:normal;font-variant-east-asian:normal;font-feature-settings:normal;font-variation-settings:normal;text-indent:0;text-decoration-line:none;text-decoration-style:solid;text-decoration-color:#000;text-transform:none;text-orientation:mixed;white-space:normal;shape-padding:0;shape-margin:0;inline-size:0;isolation:auto;mix-blend-mode:normal" transform="matrix(1.91183 0 0 1.91183 -.374 -.388)"/><path d="M22.478 21.774h3.859c.423 0 .763.34.763.764v3.612c0 .423-.34.763-.763.763h-3.859a.762.762 0 01-.764-.763v-3.612c0-.423.341-.764.764-.764z" fill="url(#prefix__t)" style="font-variant-ligatures:normal;font-variant-position:normal;font-variant-caps:normal;font-variant-numeric:normal;font-variant-alternates:normal;font-variant-east-asian:normal;font-feature-settings:normal;font-variation-settings:normal;text-indent:0;text-decoration-line:none;text-decoration-style:solid;text-decoration-color:#000;text-transform:none;text-orientation:mixed;white-space:normal;shape-padding:0;shape-margin:0;inline-size:0;isolation:auto;mix-blend-mode:normal" transform="matrix(1.91183 0 0 1.91183 -.374 -.388)"/><path d="M22.476 21.562a.973.973 0 00-.973.973v3.613c0 .537.436.976.973.976h3.86a.98.98 0 00.976-.976v-3.613a.977.977 0 00-.977-.973zm0 .422h3.86c.309 0 .55.241.55.55v3.614c0 .31-.241.55-.55.55h-3.86a.544.544 0 01-.55-.55v-3.613c0-.31.24-.551.55-.551z" fill="url(#prefix__u)" style="font-variant-ligatures:normal;font-variant-position:normal;font-variant-caps:normal;font-variant-numeric:normal;font-variant-alternates:normal;font-variant-east-asian:normal;font-feature-settings:normal;font-variation-settings:normal;text-indent:0;text-decoration-line:none;text-decoration-style:solid;text-decoration-color:#000;text-transform:none;text-orientation:mixed;white-space:normal;shape-padding:0;shape-margin:0;inline-size:0;isolation:auto;mix-blend-mode:normal" transform="matrix(1.91183 0 0 1.91183 -.374 -.388)"/></g></svg>