<?xml version="1.0" encoding="UTF-8" standalone="no"?>
<svg
   version="1.1"
   x="0"
   y="0"
   viewBox="0 0 220 220"
   width="220"
   height="220"
   id="svg307"
   sodipodi:docname="QR-code-symbolic.svg"
   xml:space="preserve"
   inkscape:version="1.4.3 (0d15f75042, 2025-12-25)"
   xmlns:inkscape="http://www.inkscape.org/namespaces/inkscape"
   xmlns:sodipodi="http://sodipodi.sourceforge.net/DTD/sodipodi-0.dtd"
   xmlns="http://www.w3.org/2000/svg"
   xmlns:svg="http://www.w3.org/2000/svg"><defs
     id="defs307" /><sodipodi:namedview
     id="namedview307"
     pagecolor="#ffffff"
     bordercolor="#000000"
     borderopacity="0.25"
     inkscape:showpageshadow="2"
     inkscape:pageopacity="0.0"
     inkscape:pagecheckerboard="0"
     inkscape:deskcolor="#d1d1d1"
     inkscape:zoom="2.3019531"
     inkscape:cx="112.73036"
     inkscape:cy="108.16901"
     inkscape:window-width="982"
     inkscape:window-height="1121"
     inkscape:window-x="24"
     inkscape:window-y="21"
     inkscape:window-maximized="0"
     inkscape:current-layer="g7" /><g
     transform="translate(10, 10)"
     id="g307"><g
   shape-rendering="geometricPrecision"
   fill="currentColor"
   id="g302"><rect
     x="62.93474137931034"
     y="0.8719827586206896"
     width="5.171896551724138"
     height="5.171896551724138"
     rx="4"
     id="rect1" /><rect
     x="69.83060344827585"
     y="0.8719827586206896"
     width="5.171896551724138"
     height="5.171896551724138"
     rx="4"
     id="rect2" /><rect
     x="83.6223275862069"
     y="0.8719827586206896"
     width="5.171896551724138"
     height="5.171896551724138"
     rx="4"
     id="rect3" /><rect
     x="97.41405172413793"
     y="0.8719827586206896"
     width="5.171896551724138"
     height="5.171896551724138"
     rx="4"
     id="rect4" /><rect
     x="111.20577586206896"
     y="0.8719827586206896"
     width="5.171896551724138"
     height="5.171896551724138"
     rx="4"
     id="rect5" /><rect
     x="118.10163793103447"
     y="0.8719827586206896"
     width="5.171896551724138"
     height="5.171896551724138"
     rx="4"
     id="rect6" /><rect
     x="124.99749999999999"
     y="0.8719827586206896"
     width="5.171896551724138"
     height="5.171896551724138"
     rx="4"
     id="rect7" /><rect
     x="131.8933620689655"
     y="0.8719827586206896"
     width="5.171896551724138"
     height="5.171896551724138"
     rx="4"
     id="rect8" /><rect
     x="138.789224137931"
     y="0.8719827586206896"
     width="5.171896551724138"
     height="5.171896551724138"
     rx="4"
     id="rect9" /><rect
     x="76.72646551724138"
     y="7.767844827586206"
     width="5.171896551724138"
     height="5.171896551724138"
     rx="4"
     id="rect10" /><rect
     x="83.6223275862069"
     y="7.767844827586206"
     width="5.171896551724138"
     height="5.171896551724138"
     rx="4"
     id="rect11" /><rect
     x="90.5181896551724"
     y="7.767844827586206"
     width="5.171896551724138"
     height="5.171896551724138"
     rx="4"
     id="rect12" /><rect
     x="104.30991379310345"
     y="7.767844827586206"
     width="5.171896551724138"
     height="5.171896551724138"
     rx="4"
     id="rect13" /><rect
     x="118.10163793103447"
     y="7.767844827586206"
     width="5.171896551724138"
     height="5.171896551724138"
     rx="4"
     id="rect14" /><rect
     x="124.99749999999999"
     y="7.767844827586206"
     width="5.171896551724138"
     height="5.171896551724138"
     rx="4"
     id="rect15" /><rect
     x="62.93474137931034"
     y="14.663706896551723"
     width="5.171896551724138"
     height="5.171896551724138"
     rx="4"
     id="rect16" /><rect
     x="76.72646551724138"
     y="14.663706896551723"
     width="5.171896551724138"
     height="5.171896551724138"
     rx="4"
     id="rect17" /><rect
     x="83.6223275862069"
     y="14.663706896551723"
     width="5.171896551724138"
     height="5.171896551724138"
     rx="4"
     id="rect18" /><rect
     x="124.99749999999999"
     y="14.663706896551723"
     width="5.171896551724138"
     height="5.171896551724138"
     rx="4"
     id="rect19" /><rect
     x="69.83060344827585"
     y="21.559568965517244"
     width="5.171896551724138"
     height="5.171896551724138"
     rx="4"
     id="rect20" /><rect
     x="76.72646551724138"
     y="21.559568965517244"
     width="5.171896551724138"
     height="5.171896551724138"
     rx="4"
     id="rect21" /><rect
     x="90.5181896551724"
     y="21.559568965517244"
     width="5.171896551724138"
     height="5.171896551724138"
     rx="4"
     id="rect22" /><rect
     x="97.41405172413793"
     y="21.559568965517244"
     width="5.171896551724138"
     height="5.171896551724138"
     rx="4"
     id="rect23" /><rect
     x="104.30991379310345"
     y="21.559568965517244"
     width="5.171896551724138"
     height="5.171896551724138"
     rx="4"
     id="rect24" /><rect
     x="111.20577586206896"
     y="21.559568965517244"
     width="5.171896551724138"
     height="5.171896551724138"
     rx="4"
     id="rect25" /><rect
     x="118.10163793103447"
     y="21.559568965517244"
     width="5.171896551724138"
     height="5.171896551724138"
     rx="4"
     id="rect26" /><rect
     x="56.038879310344825"
     y="28.45543103448276"
     width="5.171896551724138"
     height="5.171896551724138"
     rx="4"
     id="rect27" /><rect
     x="69.83060344827585"
     y="28.45543103448276"
     width="5.171896551724138"
     height="5.171896551724138"
     rx="4"
     id="rect28" /><rect
     x="83.6223275862069"
     y="28.45543103448276"
     width="5.171896551724138"
     height="5.171896551724138"
     rx="4"
     id="rect29" /><rect
     x="104.30991379310345"
     y="28.45543103448276"
     width="5.171896551724138"
     height="5.171896551724138"
     rx="4"
     id="rect30" /><rect
     x="131.8933620689655"
     y="28.45543103448276"
     width="5.171896551724138"
     height="5.171896551724138"
     rx="4"
     id="rect31" /><rect
     x="138.789224137931"
     y="28.45543103448276"
     width="5.171896551724138"
     height="5.171896551724138"
     rx="4"
     id="rect32" /><rect
     x="62.93474137931034"
     y="35.35129310344827"
     width="5.171896551724138"
     height="5.171896551724138"
     rx="4"
     id="rect33" /><rect
     x="76.72646551724138"
     y="35.35129310344827"
     width="5.171896551724138"
     height="5.171896551724138"
     rx="4"
     id="rect34" /><rect
     x="83.6223275862069"
     y="35.35129310344827"
     width="5.171896551724138"
     height="5.171896551724138"
     rx="4"
     id="rect35" /><rect
     x="97.41405172413793"
     y="35.35129310344827"
     width="5.171896551724138"
     height="5.171896551724138"
     rx="4"
     id="rect36" /><rect
     x="118.10163793103447"
     y="35.35129310344827"
     width="5.171896551724138"
     height="5.171896551724138"
     rx="4"
     id="rect37" /><rect
     x="131.8933620689655"
     y="35.35129310344827"
     width="5.171896551724138"
     height="5.171896551724138"
     rx="4"
     id="rect38" /><rect
     x="138.789224137931"
     y="35.35129310344827"
     width="5.171896551724138"
     height="5.171896551724138"
     rx="4"
     id="rect39" /><rect
     x="56.038879310344825"
     y="42.24715517241379"
     width="5.171896551724138"
     height="5.171896551724138"
     rx="4"
     id="rect40" /><rect
     x="69.83060344827585"
     y="42.24715517241379"
     width="5.171896551724138"
     height="5.171896551724138"
     rx="4"
     id="rect41" /><rect
     x="83.6223275862069"
     y="42.24715517241379"
     width="5.171896551724138"
     height="5.171896551724138"
     rx="4"
     id="rect42" /><rect
     x="97.41405172413793"
     y="42.24715517241379"
     width="5.171896551724138"
     height="5.171896551724138"
     rx="4"
     id="rect43" /><rect
     x="111.20577586206896"
     y="42.24715517241379"
     width="5.171896551724138"
     height="5.171896551724138"
     rx="4"
     id="rect44" /><rect
     x="124.99749999999999"
     y="42.24715517241379"
     width="5.171896551724138"
     height="5.171896551724138"
     rx="4"
     id="rect45" /><rect
     x="138.789224137931"
     y="42.24715517241379"
     width="5.171896551724138"
     height="5.171896551724138"
     rx="4"
     id="rect46" /><rect
     x="56.038879310344825"
     y="49.14301724137931"
     width="5.171896551724138"
     height="5.171896551724138"
     rx="4"
     id="rect47" /><rect
     x="76.72646551724138"
     y="49.14301724137931"
     width="5.171896551724138"
     height="5.171896551724138"
     rx="4"
     id="rect48" /><rect
     x="83.6223275862069"
     y="49.14301724137931"
     width="5.171896551724138"
     height="5.171896551724138"
     rx="4"
     id="rect49" /><rect
     x="90.5181896551724"
     y="49.14301724137931"
     width="5.171896551724138"
     height="5.171896551724138"
     rx="4"
     id="rect50" /><rect
     x="111.20577586206896"
     y="49.14301724137931"
     width="5.171896551724138"
     height="5.171896551724138"
     rx="4"
     id="rect51" /><rect
     x="118.10163793103447"
     y="49.14301724137931"
     width="5.171896551724138"
     height="5.171896551724138"
     rx="4"
     id="rect52" /><rect
     x="124.99749999999999"
     y="49.14301724137931"
     width="5.171896551724138"
     height="5.171896551724138"
     rx="4"
     id="rect53" /><rect
     x="131.8933620689655"
     y="49.14301724137931"
     width="5.171896551724138"
     height="5.171896551724138"
     rx="4"
     id="rect54" /><rect
     x="14.663706896551723"
     y="56.038879310344825"
     width="5.171896551724138"
     height="5.171896551724138"
     rx="4"
     id="rect55" /><rect
     x="21.559568965517244"
     y="56.038879310344825"
     width="5.171896551724138"
     height="5.171896551724138"
     rx="4"
     id="rect56" /><rect
     x="42.24715517241379"
     y="56.038879310344825"
     width="5.171896551724138"
     height="5.171896551724138"
     rx="4"
     id="rect57" /><rect
     x="49.14301724137931"
     y="56.038879310344825"
     width="5.171896551724138"
     height="5.171896551724138"
     rx="4"
     id="rect58" /><rect
     x="56.038879310344825"
     y="56.038879310344825"
     width="5.171896551724138"
     height="5.171896551724138"
     rx="4"
     id="rect59" /><rect
     x="69.83060344827585"
     y="56.038879310344825"
     width="5.171896551724138"
     height="5.171896551724138"
     rx="4"
     id="rect60" /><rect
     x="90.5181896551724"
     y="56.038879310344825"
     width="5.171896551724138"
     height="5.171896551724138"
     rx="4"
     id="rect61" /><rect
     x="97.41405172413793"
     y="56.038879310344825"
     width="5.171896551724138"
     height="5.171896551724138"
     rx="4"
     id="rect62" /><rect
     x="111.20577586206896"
     y="56.038879310344825"
     width="5.171896551724138"
     height="5.171896551724138"
     rx="4"
     id="rect63" /><rect
     x="138.789224137931"
     y="56.038879310344825"
     width="5.171896551724138"
     height="5.171896551724138"
     rx="4"
     id="rect64" /><rect
     x="145.68508620689653"
     y="56.038879310344825"
     width="5.171896551724138"
     height="5.171896551724138"
     rx="4"
     id="rect65" /><rect
     x="152.58094827586206"
     y="56.038879310344825"
     width="5.171896551724138"
     height="5.171896551724138"
     rx="4"
     id="rect66" /><rect
     x="166.37267241379308"
     y="56.038879310344825"
     width="5.171896551724138"
     height="5.171896551724138"
     rx="4"
     id="rect67" /><rect
     x="0.8719827586206896"
     y="62.93474137931034"
     width="5.171896551724138"
     height="5.171896551724138"
     rx="4"
     id="rect68" /><rect
     x="14.663706896551723"
     y="62.93474137931034"
     width="5.171896551724138"
     height="5.171896551724138"
     rx="4"
     id="rect69" /><rect
     x="21.559568965517244"
     y="62.93474137931034"
     width="5.171896551724138"
     height="5.171896551724138"
     rx="4"
     id="rect70" /><rect
     x="49.14301724137931"
     y="62.93474137931034"
     width="5.171896551724138"
     height="5.171896551724138"
     rx="4"
     id="rect71" /><rect
     x="56.038879310344825"
     y="62.93474137931034"
     width="5.171896551724138"
     height="5.171896551724138"
     rx="4"
     id="rect72" /><rect
     x="62.93474137931034"
     y="62.93474137931034"
     width="5.171896551724138"
     height="5.171896551724138"
     rx="4"
     id="rect73" /><rect
     x="90.5181896551724"
     y="62.93474137931034"
     width="5.171896551724138"
     height="5.171896551724138"
     rx="4"
     id="rect74" /><rect
     x="104.30991379310345"
     y="62.93474137931034"
     width="5.171896551724138"
     height="5.171896551724138"
     rx="4"
     id="rect75" /><rect
     x="118.10163793103447"
     y="62.93474137931034"
     width="5.171896551724138"
     height="5.171896551724138"
     rx="4"
     id="rect76" /><rect
     x="124.99749999999999"
     y="62.93474137931034"
     width="5.171896551724138"
     height="5.171896551724138"
     rx="4"
     id="rect77" /><rect
     x="131.8933620689655"
     y="62.93474137931034"
     width="5.171896551724138"
     height="5.171896551724138"
     rx="4"
     id="rect78" /><rect
     x="138.789224137931"
     y="62.93474137931034"
     width="5.171896551724138"
     height="5.171896551724138"
     rx="4"
     id="rect79" /><rect
     x="145.68508620689653"
     y="62.93474137931034"
     width="5.171896551724138"
     height="5.171896551724138"
     rx="4"
     id="rect80" /><rect
     x="152.58094827586206"
     y="62.93474137931034"
     width="5.171896551724138"
     height="5.171896551724138"
     rx="4"
     id="rect81" /><rect
     x="159.47681034482756"
     y="62.93474137931034"
     width="5.171896551724138"
     height="5.171896551724138"
     rx="4"
     id="rect82" /><rect
     x="166.37267241379308"
     y="62.93474137931034"
     width="5.171896551724138"
     height="5.171896551724138"
     rx="4"
     id="rect83" /><rect
     x="173.2685344827586"
     y="62.93474137931034"
     width="5.171896551724138"
     height="5.171896551724138"
     rx="4"
     id="rect84" /><rect
     x="180.1643965517241"
     y="62.93474137931034"
     width="5.171896551724138"
     height="5.171896551724138"
     rx="4"
     id="rect85" /><rect
     x="193.95612068965517"
     y="62.93474137931034"
     width="5.171896551724138"
     height="5.171896551724138"
     rx="4"
     id="rect86" /><rect
     x="0.8719827586206896"
     y="69.83060344827585"
     width="5.171896551724138"
     height="5.171896551724138"
     rx="4"
     id="rect87" /><rect
     x="14.663706896551723"
     y="69.83060344827585"
     width="5.171896551724138"
     height="5.171896551724138"
     rx="4"
     id="rect88" /><rect
     x="28.45543103448276"
     y="69.83060344827585"
     width="5.171896551724138"
     height="5.171896551724138"
     rx="4"
     id="rect89" /><rect
     x="42.24715517241379"
     y="69.83060344827585"
     width="5.171896551724138"
     height="5.171896551724138"
     rx="4"
     id="rect90" /><rect
     x="62.93474137931034"
     y="69.83060344827585"
     width="5.171896551724138"
     height="5.171896551724138"
     rx="4"
     id="rect91" /><rect
     x="69.83060344827585"
     y="69.83060344827585"
     width="5.171896551724138"
     height="5.171896551724138"
     rx="4"
     id="rect92" /><rect
     x="76.72646551724138"
     y="69.83060344827585"
     width="5.171896551724138"
     height="5.171896551724138"
     rx="4"
     id="rect93" /><rect
     x="83.6223275862069"
     y="69.83060344827585"
     width="5.171896551724138"
     height="5.171896551724138"
     rx="4"
     id="rect94" /><rect
     x="90.5181896551724"
     y="69.83060344827585"
     width="5.171896551724138"
     height="5.171896551724138"
     rx="4"
     id="rect95" /><rect
     x="104.30991379310345"
     y="69.83060344827585"
     width="5.171896551724138"
     height="5.171896551724138"
     rx="4"
     id="rect96" /><rect
     x="118.10163793103447"
     y="69.83060344827585"
     width="5.171896551724138"
     height="5.171896551724138"
     rx="4"
     id="rect97" /><rect
     x="124.99749999999999"
     y="69.83060344827585"
     width="5.171896551724138"
     height="5.171896551724138"
     rx="4"
     id="rect98" /><rect
     x="152.58094827586206"
     y="69.83060344827585"
     width="5.171896551724138"
     height="5.171896551724138"
     rx="4"
     id="rect99" /><rect
     x="166.37267241379308"
     y="69.83060344827585"
     width="5.171896551724138"
     height="5.171896551724138"
     rx="4"
     id="rect100" /><rect
     x="187.06025862068964"
     y="69.83060344827585"
     width="5.171896551724138"
     height="5.171896551724138"
     rx="4"
     id="rect101" /><rect
     x="0.8719827586206896"
     y="76.72646551724138"
     width="5.171896551724138"
     height="5.171896551724138"
     rx="4"
     id="rect102" /><rect
     x="7.767844827586206"
     y="76.72646551724138"
     width="5.171896551724138"
     height="5.171896551724138"
     rx="4"
     id="rect103" /><rect
     x="28.45543103448276"
     y="76.72646551724138"
     width="5.171896551724138"
     height="5.171896551724138"
     rx="4"
     id="rect104" /><rect
     x="56.038879310344825"
     y="76.72646551724138"
     width="5.171896551724138"
     height="5.171896551724138"
     rx="4"
     id="rect105" /><rect
     x="131.8933620689655"
     y="76.72646551724138"
     width="5.171896551724138"
     height="5.171896551724138"
     rx="4"
     id="rect106" /><rect
     x="159.47681034482756"
     y="76.72646551724138"
     width="5.171896551724138"
     height="5.171896551724138"
     rx="4"
     id="rect107" /><rect
     x="166.37267241379308"
     y="76.72646551724138"
     width="5.171896551724138"
     height="5.171896551724138"
     rx="4"
     id="rect108" /><rect
     x="193.95612068965517"
     y="76.72646551724138"
     width="5.171896551724138"
     height="5.171896551724138"
     rx="4"
     id="rect109" /><rect
     x="7.767844827586206"
     y="83.6223275862069"
     width="5.171896551724138"
     height="5.171896551724138"
     rx="4"
     id="rect110" /><rect
     x="28.45543103448276"
     y="83.6223275862069"
     width="5.171896551724138"
     height="5.171896551724138"
     rx="4"
     id="rect111" /><rect
     x="35.35129310344827"
     y="83.6223275862069"
     width="5.171896551724138"
     height="5.171896551724138"
     rx="4"
     id="rect112" /><rect
     x="42.24715517241379"
     y="83.6223275862069"
     width="5.171896551724138"
     height="5.171896551724138"
     rx="4"
     id="rect113" /><rect
     x="49.14301724137931"
     y="83.6223275862069"
     width="5.171896551724138"
     height="5.171896551724138"
     rx="4"
     id="rect114" /><rect
     x="62.93474137931034"
     y="83.6223275862069"
     width="5.171896551724138"
     height="5.171896551724138"
     rx="4"
     id="rect115" /><rect
     x="131.8933620689655"
     y="83.6223275862069"
     width="5.171896551724138"
     height="5.171896551724138"
     rx="4"
     id="rect116" /><rect
     x="145.68508620689653"
     y="83.6223275862069"
     width="5.171896551724138"
     height="5.171896551724138"
     rx="4"
     id="rect117" /><rect
     x="159.47681034482756"
     y="83.6223275862069"
     width="5.171896551724138"
     height="5.171896551724138"
     rx="4"
     id="rect118" /><rect
     x="180.1643965517241"
     y="83.6223275862069"
     width="5.171896551724138"
     height="5.171896551724138"
     rx="4"
     id="rect119" /><rect
     x="187.06025862068964"
     y="83.6223275862069"
     width="5.171896551724138"
     height="5.171896551724138"
     rx="4"
     id="rect120" /><rect
     x="193.95612068965517"
     y="83.6223275862069"
     width="5.171896551724138"
     height="5.171896551724138"
     rx="4"
     id="rect121" /><rect
     x="0.8719827586206896"
     y="90.5181896551724"
     width="5.171896551724138"
     height="5.171896551724138"
     rx="4"
     id="rect122" /><rect
     x="7.767844827586206"
     y="90.5181896551724"
     width="5.171896551724138"
     height="5.171896551724138"
     rx="4"
     id="rect123" /><rect
     x="28.45543103448276"
     y="90.5181896551724"
     width="5.171896551724138"
     height="5.171896551724138"
     rx="4"
     id="rect124" /><rect
     x="35.35129310344827"
     y="90.5181896551724"
     width="5.171896551724138"
     height="5.171896551724138"
     rx="4"
     id="rect125" /><rect
     x="49.14301724137931"
     y="90.5181896551724"
     width="5.171896551724138"
     height="5.171896551724138"
     rx="4"
     id="rect126" /><rect
     x="56.038879310344825"
     y="90.5181896551724"
     width="5.171896551724138"
     height="5.171896551724138"
     rx="4"
     id="rect127" /><rect
     x="131.8933620689655"
     y="90.5181896551724"
     width="5.171896551724138"
     height="5.171896551724138"
     rx="4"
     id="rect128" /><rect
     x="152.58094827586206"
     y="90.5181896551724"
     width="5.171896551724138"
     height="5.171896551724138"
     rx="4"
     id="rect129" /><rect
     x="159.47681034482756"
     y="90.5181896551724"
     width="5.171896551724138"
     height="5.171896551724138"
     rx="4"
     id="rect130" /><rect
     x="173.2685344827586"
     y="90.5181896551724"
     width="5.171896551724138"
     height="5.171896551724138"
     rx="4"
     id="rect131" /><rect
     x="180.1643965517241"
     y="90.5181896551724"
     width="5.171896551724138"
     height="5.171896551724138"
     rx="4"
     id="rect132" /><rect
     x="193.95612068965517"
     y="90.5181896551724"
     width="5.171896551724138"
     height="5.171896551724138"
     rx="4"
     id="rect133" /><rect
     x="21.559568965517244"
     y="97.41405172413793"
     width="5.171896551724138"
     height="5.171896551724138"
     rx="4"
     id="rect134" /><rect
     x="28.45543103448276"
     y="97.41405172413793"
     width="5.171896551724138"
     height="5.171896551724138"
     rx="4"
     id="rect135" /><rect
     x="35.35129310344827"
     y="97.41405172413793"
     width="5.171896551724138"
     height="5.171896551724138"
     rx="4"
     id="rect136" /><rect
     x="42.24715517241379"
     y="97.41405172413793"
     width="5.171896551724138"
     height="5.171896551724138"
     rx="4"
     id="rect137" /><rect
     x="62.93474137931034"
     y="97.41405172413793"
     width="5.171896551724138"
     height="5.171896551724138"
     rx="4"
     id="rect138" /><rect
     x="131.8933620689655"
     y="97.41405172413793"
     width="5.171896551724138"
     height="5.171896551724138"
     rx="4"
     id="rect139" /><rect
     x="138.789224137931"
     y="97.41405172413793"
     width="5.171896551724138"
     height="5.171896551724138"
     rx="4"
     id="rect140" /><rect
     x="152.58094827586206"
     y="97.41405172413793"
     width="5.171896551724138"
     height="5.171896551724138"
     rx="4"
     id="rect141" /><rect
     x="159.47681034482756"
     y="97.41405172413793"
     width="5.171896551724138"
     height="5.171896551724138"
     rx="4"
     id="rect142" /><rect
     x="166.37267241379308"
     y="97.41405172413793"
     width="5.171896551724138"
     height="5.171896551724138"
     rx="4"
     id="rect143" /><rect
     x="173.2685344827586"
     y="97.41405172413793"
     width="5.171896551724138"
     height="5.171896551724138"
     rx="4"
     id="rect144" /><rect
     x="193.95612068965517"
     y="97.41405172413793"
     width="5.171896551724138"
     height="5.171896551724138"
     rx="4"
     id="rect145" /><rect
     x="7.767844827586206"
     y="104.30991379310345"
     width="5.171896551724138"
     height="5.171896551724138"
     rx="4"
     id="rect146" /><rect
     x="14.663706896551723"
     y="104.30991379310345"
     width="5.171896551724138"
     height="5.171896551724138"
     rx="4"
     id="rect147" /><rect
     x="35.35129310344827"
     y="104.30991379310345"
     width="5.171896551724138"
     height="5.171896551724138"
     rx="4"
     id="rect148" /><rect
     x="49.14301724137931"
     y="104.30991379310345"
     width="5.171896551724138"
     height="5.171896551724138"
     rx="4"
     id="rect149" /><rect
     x="131.8933620689655"
     y="104.30991379310345"
     width="5.171896551724138"
     height="5.171896551724138"
     rx="4"
     id="rect150" /><rect
     x="166.37267241379308"
     y="104.30991379310345"
     width="5.171896551724138"
     height="5.171896551724138"
     rx="4"
     id="rect151" /><rect
     x="173.2685344827586"
     y="104.30991379310345"
     width="5.171896551724138"
     height="5.171896551724138"
     rx="4"
     id="rect152" /><rect
     x="0.8719827586206896"
     y="111.20577586206896"
     width="5.171896551724138"
     height="5.171896551724138"
     rx="4"
     id="rect153" /><rect
     x="21.559568965517244"
     y="111.20577586206896"
     width="5.171896551724138"
     height="5.171896551724138"
     rx="4"
     id="rect154" /><rect
     x="35.35129310344827"
     y="111.20577586206896"
     width="5.171896551724138"
     height="5.171896551724138"
     rx="4"
     id="rect155" /><rect
     x="42.24715517241379"
     y="111.20577586206896"
     width="5.171896551724138"
     height="5.171896551724138"
     rx="4"
     id="rect156" /><rect
     x="56.038879310344825"
     y="111.20577586206896"
     width="5.171896551724138"
     height="5.171896551724138"
     rx="4"
     id="rect157" /><rect
     x="62.93474137931034"
     y="111.20577586206896"
     width="5.171896551724138"
     height="5.171896551724138"
     rx="4"
     id="rect158" /><rect
     x="131.8933620689655"
     y="111.20577586206896"
     width="5.171896551724138"
     height="5.171896551724138"
     rx="4"
     id="rect159" /><rect
     x="138.789224137931"
     y="111.20577586206896"
     width="5.171896551724138"
     height="5.171896551724138"
     rx="4"
     id="rect160" /><rect
     x="145.68508620689653"
     y="111.20577586206896"
     width="5.171896551724138"
     height="5.171896551724138"
     rx="4"
     id="rect161" /><rect
     x="159.47681034482756"
     y="111.20577586206896"
     width="5.171896551724138"
     height="5.171896551724138"
     rx="4"
     id="rect162" /><rect
     x="166.37267241379308"
     y="111.20577586206896"
     width="5.171896551724138"
     height="5.171896551724138"
     rx="4"
     id="rect163" /><rect
     x="173.2685344827586"
     y="111.20577586206896"
     width="5.171896551724138"
     height="5.171896551724138"
     rx="4"
     id="rect164" /><rect
     x="193.95612068965517"
     y="111.20577586206896"
     width="5.171896551724138"
     height="5.171896551724138"
     rx="4"
     id="rect165" /><rect
     x="21.559568965517244"
     y="118.10163793103447"
     width="5.171896551724138"
     height="5.171896551724138"
     rx="4"
     id="rect166" /><rect
     x="49.14301724137931"
     y="118.10163793103447"
     width="5.171896551724138"
     height="5.171896551724138"
     rx="4"
     id="rect167" /><rect
     x="62.93474137931034"
     y="118.10163793103447"
     width="5.171896551724138"
     height="5.171896551724138"
     rx="4"
     id="rect168" /><rect
     x="138.789224137931"
     y="118.10163793103447"
     width="5.171896551724138"
     height="5.171896551724138"
     rx="4"
     id="rect169" /><rect
     x="145.68508620689653"
     y="118.10163793103447"
     width="5.171896551724138"
     height="5.171896551724138"
     rx="4"
     id="rect170" /><rect
     x="173.2685344827586"
     y="118.10163793103447"
     width="5.171896551724138"
     height="5.171896551724138"
     rx="4"
     id="rect171" /><rect
     x="0.8719827586206896"
     y="124.99749999999999"
     width="5.171896551724138"
     height="5.171896551724138"
     rx="4"
     id="rect172" /><rect
     x="21.559568965517244"
     y="124.99749999999999"
     width="5.171896551724138"
     height="5.171896551724138"
     rx="4"
     id="rect173" /><rect
     x="28.45543103448276"
     y="124.99749999999999"
     width="5.171896551724138"
     height="5.171896551724138"
     rx="4"
     id="rect174" /><rect
     x="35.35129310344827"
     y="124.99749999999999"
     width="5.171896551724138"
     height="5.171896551724138"
     rx="4"
     id="rect175" /><rect
     x="42.24715517241379"
     y="124.99749999999999"
     width="5.171896551724138"
     height="5.171896551724138"
     rx="4"
     id="rect176" /><rect
     x="49.14301724137931"
     y="124.99749999999999"
     width="5.171896551724138"
     height="5.171896551724138"
     rx="4"
     id="rect177" /><rect
     x="69.83060344827585"
     y="124.99749999999999"
     width="5.171896551724138"
     height="5.171896551724138"
     rx="4"
     id="rect178" /><rect
     x="97.41405172413793"
     y="124.99749999999999"
     width="5.171896551724138"
     height="5.171896551724138"
     rx="4"
     id="rect179" /><rect
     x="111.20577586206896"
     y="124.99749999999999"
     width="5.171896551724138"
     height="5.171896551724138"
     rx="4"
     id="rect180" /><rect
     x="124.99749999999999"
     y="124.99749999999999"
     width="5.171896551724138"
     height="5.171896551724138"
     rx="4"
     id="rect181" /><rect
     x="152.58094827586206"
     y="124.99749999999999"
     width="5.171896551724138"
     height="5.171896551724138"
     rx="4"
     id="rect182" /><rect
     x="159.47681034482756"
     y="124.99749999999999"
     width="5.171896551724138"
     height="5.171896551724138"
     rx="4"
     id="rect183" /><rect
     x="166.37267241379308"
     y="124.99749999999999"
     width="5.171896551724138"
     height="5.171896551724138"
     rx="4"
     id="rect184" /><rect
     x="173.2685344827586"
     y="124.99749999999999"
     width="5.171896551724138"
     height="5.171896551724138"
     rx="4"
     id="rect185" /><rect
     x="180.1643965517241"
     y="124.99749999999999"
     width="5.171896551724138"
     height="5.171896551724138"
     rx="4"
     id="rect186" /><rect
     x="49.14301724137931"
     y="131.8933620689655"
     width="5.171896551724138"
     height="5.171896551724138"
     rx="4"
     id="rect187" /><rect
     x="69.83060344827585"
     y="131.8933620689655"
     width="5.171896551724138"
     height="5.171896551724138"
     rx="4"
     id="rect188" /><rect
     x="83.6223275862069"
     y="131.8933620689655"
     width="5.171896551724138"
     height="5.171896551724138"
     rx="4"
     id="rect189" /><rect
     x="90.5181896551724"
     y="131.8933620689655"
     width="5.171896551724138"
     height="5.171896551724138"
     rx="4"
     id="rect190" /><rect
     x="118.10163793103447"
     y="131.8933620689655"
     width="5.171896551724138"
     height="5.171896551724138"
     rx="4"
     id="rect191" /><rect
     x="131.8933620689655"
     y="131.8933620689655"
     width="5.171896551724138"
     height="5.171896551724138"
     rx="4"
     id="rect192" /><rect
     x="145.68508620689653"
     y="131.8933620689655"
     width="5.171896551724138"
     height="5.171896551724138"
     rx="4"
     id="rect193" /><rect
     x="152.58094827586206"
     y="131.8933620689655"
     width="5.171896551724138"
     height="5.171896551724138"
     rx="4"
     id="rect194" /><rect
     x="166.37267241379308"
     y="131.8933620689655"
     width="5.171896551724138"
     height="5.171896551724138"
     rx="4"
     id="rect195" /><rect
     x="173.2685344827586"
     y="131.8933620689655"
     width="5.171896551724138"
     height="5.171896551724138"
     rx="4"
     id="rect196" /><rect
     x="180.1643965517241"
     y="131.8933620689655"
     width="5.171896551724138"
     height="5.171896551724138"
     rx="4"
     id="rect197" /><rect
     x="7.767844827586206"
     y="138.789224137931"
     width="5.171896551724138"
     height="5.171896551724138"
     rx="4"
     id="rect198" /><rect
     x="28.45543103448276"
     y="138.789224137931"
     width="5.171896551724138"
     height="5.171896551724138"
     rx="4"
     id="rect199" /><rect
     x="35.35129310344827"
     y="138.789224137931"
     width="5.171896551724138"
     height="5.171896551724138"
     rx="4"
     id="rect200" /><rect
     x="42.24715517241379"
     y="138.789224137931"
     width="5.171896551724138"
     height="5.171896551724138"
     rx="4"
     id="rect201" /><rect
     x="56.038879310344825"
     y="138.789224137931"
     width="5.171896551724138"
     height="5.171896551724138"
     rx="4"
     id="rect202" /><rect
     x="62.93474137931034"
     y="138.789224137931"
     width="5.171896551724138"
     height="5.171896551724138"
     rx="4"
     id="rect203" /><rect
     x="83.6223275862069"
     y="138.789224137931"
     width="5.171896551724138"
     height="5.171896551724138"
     rx="4"
     id="rect204" /><rect
     x="90.5181896551724"
     y="138.789224137931"
     width="5.171896551724138"
     height="5.171896551724138"
     rx="4"
     id="rect205" /><rect
     x="104.30991379310345"
     y="138.789224137931"
     width="5.171896551724138"
     height="5.171896551724138"
     rx="4"
     id="rect206" /><rect
     x="111.20577586206896"
     y="138.789224137931"
     width="5.171896551724138"
     height="5.171896551724138"
     rx="4"
     id="rect207" /><rect
     x="138.789224137931"
     y="138.789224137931"
     width="5.171896551724138"
     height="5.171896551724138"
     rx="4"
     id="rect208" /><rect
     x="145.68508620689653"
     y="138.789224137931"
     width="5.171896551724138"
     height="5.171896551724138"
     rx="4"
     id="rect209" /><rect
     x="152.58094827586206"
     y="138.789224137931"
     width="5.171896551724138"
     height="5.171896551724138"
     rx="4"
     id="rect210" /><rect
     x="159.47681034482756"
     y="138.789224137931"
     width="5.171896551724138"
     height="5.171896551724138"
     rx="4"
     id="rect211" /><rect
     x="166.37267241379308"
     y="138.789224137931"
     width="5.171896551724138"
     height="5.171896551724138"
     rx="4"
     id="rect212" /><rect
     x="173.2685344827586"
     y="138.789224137931"
     width="5.171896551724138"
     height="5.171896551724138"
     rx="4"
     id="rect213" /><rect
     x="180.1643965517241"
     y="138.789224137931"
     width="5.171896551724138"
     height="5.171896551724138"
     rx="4"
     id="rect214" /><rect
     x="56.038879310344825"
     y="145.68508620689653"
     width="5.171896551724138"
     height="5.171896551724138"
     rx="4"
     id="rect215" /><rect
     x="69.83060344827585"
     y="145.68508620689653"
     width="5.171896551724138"
     height="5.171896551724138"
     rx="4"
     id="rect216" /><rect
     x="76.72646551724138"
     y="145.68508620689653"
     width="5.171896551724138"
     height="5.171896551724138"
     rx="4"
     id="rect217" /><rect
     x="83.6223275862069"
     y="145.68508620689653"
     width="5.171896551724138"
     height="5.171896551724138"
     rx="4"
     id="rect218" /><rect
     x="90.5181896551724"
     y="145.68508620689653"
     width="5.171896551724138"
     height="5.171896551724138"
     rx="4"
     id="rect219" /><rect
     x="97.41405172413793"
     y="145.68508620689653"
     width="5.171896551724138"
     height="5.171896551724138"
     rx="4"
     id="rect220" /><rect
     x="111.20577586206896"
     y="145.68508620689653"
     width="5.171896551724138"
     height="5.171896551724138"
     rx="4"
     id="rect221" /><rect
     x="118.10163793103447"
     y="145.68508620689653"
     width="5.171896551724138"
     height="5.171896551724138"
     rx="4"
     id="rect222" /><rect
     x="124.99749999999999"
     y="145.68508620689653"
     width="5.171896551724138"
     height="5.171896551724138"
     rx="4"
     id="rect223" /><rect
     x="138.789224137931"
     y="145.68508620689653"
     width="5.171896551724138"
     height="5.171896551724138"
     rx="4"
     id="rect224" /><rect
     x="166.37267241379308"
     y="145.68508620689653"
     width="5.171896551724138"
     height="5.171896551724138"
     rx="4"
     id="rect225" /><rect
     x="173.2685344827586"
     y="145.68508620689653"
     width="5.171896551724138"
     height="5.171896551724138"
     rx="4"
     id="rect226" /><rect
     x="187.06025862068964"
     y="145.68508620689653"
     width="5.171896551724138"
     height="5.171896551724138"
     rx="4"
     id="rect227" /><rect
     x="193.95612068965517"
     y="145.68508620689653"
     width="5.171896551724138"
     height="5.171896551724138"
     rx="4"
     id="rect228" /><rect
     x="56.038879310344825"
     y="152.58094827586206"
     width="5.171896551724138"
     height="5.171896551724138"
     rx="4"
     id="rect229" /><rect
     x="76.72646551724138"
     y="152.58094827586206"
     width="5.171896551724138"
     height="5.171896551724138"
     rx="4"
     id="rect230" /><rect
     x="90.5181896551724"
     y="152.58094827586206"
     width="5.171896551724138"
     height="5.171896551724138"
     rx="4"
     id="rect231" /><rect
     x="104.30991379310345"
     y="152.58094827586206"
     width="5.171896551724138"
     height="5.171896551724138"
     rx="4"
     id="rect232" /><rect
     x="111.20577586206896"
     y="152.58094827586206"
     width="5.171896551724138"
     height="5.171896551724138"
     rx="4"
     id="rect233" /><rect
     x="118.10163793103447"
     y="152.58094827586206"
     width="5.171896551724138"
     height="5.171896551724138"
     rx="4"
     id="rect234" /><rect
     x="124.99749999999999"
     y="152.58094827586206"
     width="5.171896551724138"
     height="5.171896551724138"
     rx="4"
     id="rect235" /><rect
     x="131.8933620689655"
     y="152.58094827586206"
     width="5.171896551724138"
     height="5.171896551724138"
     rx="4"
     id="rect236" /><rect
     x="138.789224137931"
     y="152.58094827586206"
     width="5.171896551724138"
     height="5.171896551724138"
     rx="4"
     id="rect237" /><rect
     x="152.58094827586206"
     y="152.58094827586206"
     width="5.171896551724138"
     height="5.171896551724138"
     rx="4"
     id="rect238" /><rect
     x="166.37267241379308"
     y="152.58094827586206"
     width="5.171896551724138"
     height="5.171896551724138"
     rx="4"
     id="rect239" /><rect
     x="180.1643965517241"
     y="152.58094827586206"
     width="5.171896551724138"
     height="5.171896551724138"
     rx="4"
     id="rect240" /><rect
     x="187.06025862068964"
     y="152.58094827586206"
     width="5.171896551724138"
     height="5.171896551724138"
     rx="4"
     id="rect241" /><rect
     x="69.83060344827585"
     y="159.47681034482756"
     width="5.171896551724138"
     height="5.171896551724138"
     rx="4"
     id="rect242" /><rect
     x="76.72646551724138"
     y="159.47681034482756"
     width="5.171896551724138"
     height="5.171896551724138"
     rx="4"
     id="rect243" /><rect
     x="83.6223275862069"
     y="159.47681034482756"
     width="5.171896551724138"
     height="5.171896551724138"
     rx="4"
     id="rect244" /><rect
     x="104.30991379310345"
     y="159.47681034482756"
     width="5.171896551724138"
     height="5.171896551724138"
     rx="4"
     id="rect245" /><rect
     x="111.20577586206896"
     y="159.47681034482756"
     width="5.171896551724138"
     height="5.171896551724138"
     rx="4"
     id="rect246" /><rect
     x="138.789224137931"
     y="159.47681034482756"
     width="5.171896551724138"
     height="5.171896551724138"
     rx="4"
     id="rect247" /><rect
     x="166.37267241379308"
     y="159.47681034482756"
     width="5.171896551724138"
     height="5.171896551724138"
     rx="4"
     id="rect248" /><rect
     x="69.83060344827585"
     y="166.37267241379308"
     width="5.171896551724138"
     height="5.171896551724138"
     rx="4"
     id="rect249" /><rect
     x="76.72646551724138"
     y="166.37267241379308"
     width="5.171896551724138"
     height="5.171896551724138"
     rx="4"
     id="rect250" /><rect
     x="104.30991379310345"
     y="166.37267241379308"
     width="5.171896551724138"
     height="5.171896551724138"
     rx="4"
     id="rect251" /><rect
     x="111.20577586206896"
     y="166.37267241379308"
     width="5.171896551724138"
     height="5.171896551724138"
     rx="4"
     id="rect252" /><rect
     x="118.10163793103447"
     y="166.37267241379308"
     width="5.171896551724138"
     height="5.171896551724138"
     rx="4"
     id="rect253" /><rect
     x="124.99749999999999"
     y="166.37267241379308"
     width="5.171896551724138"
     height="5.171896551724138"
     rx="4"
     id="rect254" /><rect
     x="138.789224137931"
     y="166.37267241379308"
     width="5.171896551724138"
     height="5.171896551724138"
     rx="4"
     id="rect255" /><rect
     x="145.68508620689653"
     y="166.37267241379308"
     width="5.171896551724138"
     height="5.171896551724138"
     rx="4"
     id="rect256" /><rect
     x="152.58094827586206"
     y="166.37267241379308"
     width="5.171896551724138"
     height="5.171896551724138"
     rx="4"
     id="rect257" /><rect
     x="159.47681034482756"
     y="166.37267241379308"
     width="5.171896551724138"
     height="5.171896551724138"
     rx="4"
     id="rect258" /><rect
     x="166.37267241379308"
     y="166.37267241379308"
     width="5.171896551724138"
     height="5.171896551724138"
     rx="4"
     id="rect259" /><rect
     x="173.2685344827586"
     y="166.37267241379308"
     width="5.171896551724138"
     height="5.171896551724138"
     rx="4"
     id="rect260" /><rect
     x="180.1643965517241"
     y="166.37267241379308"
     width="5.171896551724138"
     height="5.171896551724138"
     rx="4"
     id="rect261" /><rect
     x="56.038879310344825"
     y="173.2685344827586"
     width="5.171896551724138"
     height="5.171896551724138"
     rx="4"
     id="rect262" /><rect
     x="62.93474137931034"
     y="173.2685344827586"
     width="5.171896551724138"
     height="5.171896551724138"
     rx="4"
     id="rect263" /><rect
     x="83.6223275862069"
     y="173.2685344827586"
     width="5.171896551724138"
     height="5.171896551724138"
     rx="4"
     id="rect264" /><rect
     x="90.5181896551724"
     y="173.2685344827586"
     width="5.171896551724138"
     height="5.171896551724138"
     rx="4"
     id="rect265" /><rect
     x="104.30991379310345"
     y="173.2685344827586"
     width="5.171896551724138"
     height="5.171896551724138"
     rx="4"
     id="rect266" /><rect
     x="118.10163793103447"
     y="173.2685344827586"
     width="5.171896551724138"
     height="5.171896551724138"
     rx="4"
     id="rect267" /><rect
     x="131.8933620689655"
     y="173.2685344827586"
     width="5.171896551724138"
     height="5.171896551724138"
     rx="4"
     id="rect268" /><rect
     x="166.37267241379308"
     y="173.2685344827586"
     width="5.171896551724138"
     height="5.171896551724138"
     rx="4"
     id="rect269" /><rect
     x="173.2685344827586"
     y="173.2685344827586"
     width="5.171896551724138"
     height="5.171896551724138"
     rx="4"
     id="rect270" /><rect
     x="187.06025862068964"
     y="173.2685344827586"
     width="5.171896551724138"
     height="5.171896551724138"
     rx="4"
     id="rect271" /><rect
     x="56.038879310344825"
     y="180.1643965517241"
     width="5.171896551724138"
     height="5.171896551724138"
     rx="4"
     id="rect272" /><rect
     x="76.72646551724138"
     y="180.1643965517241"
     width="5.171896551724138"
     height="5.171896551724138"
     rx="4"
     id="rect273" /><rect
     x="90.5181896551724"
     y="180.1643965517241"
     width="5.171896551724138"
     height="5.171896551724138"
     rx="4"
     id="rect274" /><rect
     x="97.41405172413793"
     y="180.1643965517241"
     width="5.171896551724138"
     height="5.171896551724138"
     rx="4"
     id="rect275" /><rect
     x="104.30991379310345"
     y="180.1643965517241"
     width="5.171896551724138"
     height="5.171896551724138"
     rx="4"
     id="rect276" /><rect
     x="118.10163793103447"
     y="180.1643965517241"
     width="5.171896551724138"
     height="5.171896551724138"
     rx="4"
     id="rect277" /><rect
     x="124.99749999999999"
     y="180.1643965517241"
     width="5.171896551724138"
     height="5.171896551724138"
     rx="4"
     id="rect278" /><rect
     x="138.789224137931"
     y="180.1643965517241"
     width="5.171896551724138"
     height="5.171896551724138"
     rx="4"
     id="rect279" /><rect
     x="159.47681034482756"
     y="180.1643965517241"
     width="5.171896551724138"
     height="5.171896551724138"
     rx="4"
     id="rect280" /><rect
     x="180.1643965517241"
     y="180.1643965517241"
     width="5.171896551724138"
     height="5.171896551724138"
     rx="4"
     id="rect281" /><rect
     x="193.95612068965517"
     y="180.1643965517241"
     width="5.171896551724138"
     height="5.171896551724138"
     rx="4"
     id="rect282" /><rect
     x="76.72646551724138"
     y="187.06025862068964"
     width="5.171896551724138"
     height="5.171896551724138"
     rx="4"
     id="rect283" /><rect
     x="90.5181896551724"
     y="187.06025862068964"
     width="5.171896551724138"
     height="5.171896551724138"
     rx="4"
     id="rect284" /><rect
     x="97.41405172413793"
     y="187.06025862068964"
     width="5.171896551724138"
     height="5.171896551724138"
     rx="4"
     id="rect285" /><rect
     x="124.99749999999999"
     y="187.06025862068964"
     width="5.171896551724138"
     height="5.171896551724138"
     rx="4"
     id="rect286" /><rect
     x="138.789224137931"
     y="187.06025862068964"
     width="5.171896551724138"
     height="5.171896551724138"
     rx="4"
     id="rect287" /><rect
     x="145.68508620689653"
     y="187.06025862068964"
     width="5.171896551724138"
     height="5.171896551724138"
     rx="4"
     id="rect288" /><rect
     x="166.37267241379308"
     y="187.06025862068964"
     width="5.171896551724138"
     height="5.171896551724138"
     rx="4"
     id="rect289" /><rect
     x="173.2685344827586"
     y="187.06025862068964"
     width="5.171896551724138"
     height="5.171896551724138"
     rx="4"
     id="rect290" /><rect
     x="187.06025862068964"
     y="187.06025862068964"
     width="5.171896551724138"
     height="5.171896551724138"
     rx="4"
     id="rect291" /><rect
     x="62.93474137931034"
     y="193.95612068965517"
     width="5.171896551724138"
     height="5.171896551724138"
     rx="4"
     id="rect292" /><rect
     x="69.83060344827585"
     y="193.95612068965517"
     width="5.171896551724138"
     height="5.171896551724138"
     rx="4"
     id="rect293" /><rect
     x="83.6223275862069"
     y="193.95612068965517"
     width="5.171896551724138"
     height="5.171896551724138"
     rx="4"
     id="rect294" /><rect
     x="90.5181896551724"
     y="193.95612068965517"
     width="5.171896551724138"
     height="5.171896551724138"
     rx="4"
     id="rect295" /><rect
     x="111.20577586206896"
     y="193.95612068965517"
     width="5.171896551724138"
     height="5.171896551724138"
     rx="4"
     id="rect296" /><rect
     x="118.10163793103447"
     y="193.95612068965517"
     width="5.171896551724138"
     height="5.171896551724138"
     rx="4"
     id="rect297" /><rect
     x="131.8933620689655"
     y="193.95612068965517"
     width="5.171896551724138"
     height="5.171896551724138"
     rx="4"
     id="rect298" /><rect
     x="138.789224137931"
     y="193.95612068965517"
     width="5.171896551724138"
     height="5.171896551724138"
     rx="4"
     id="rect299" /><rect
     x="152.58094827586206"
     y="193.95612068965517"
     width="5.171896551724138"
     height="5.171896551724138"
     rx="4"
     id="rect300" /><rect
     x="159.47681034482756"
     y="193.95612068965517"
     width="5.171896551724138"
     height="5.171896551724138"
     rx="4"
     id="rect301" /><rect
     x="187.06025862068964"
     y="193.95612068965517"
     width="5.171896551724138"
     height="5.171896551724138"
     rx="4"
     id="rect302" /></g><g
   shape-rendering="geometricPrecision"
   id="g306"><path
     d="M 10.343793103448276,0.0 h 27.58344827586207 a 10.343793103448276,10.343793103448276 0 0 1 10.343793103448276,10.343793103448276 v 27.58344827586207 a 10.343793103448276,10.343793103448276 0 0 1 -10.343793103448276,10.343793103448276 h -27.58344827586207 a 10.343793103448276,10.343793103448276 0 0 1 -10.343793103448276,-10.343793103448276 v -27.58344827586207 a 10.343793103448276,10.343793103448276 0 0 1 10.343793103448276,-10.343793103448276 z M 10.343793103448276,6.895862068965517 h 27.583448275862064 a 3.4479310344827585,3.4479310344827585 0 0 1 3.4479310344827585,3.4479310344827585 v 27.583448275862064 a 3.4479310344827585,3.4479310344827585 0 0 1 -3.4479310344827585,3.4479310344827585 h -27.583448275862064 a 3.4479310344827585,3.4479310344827585 0 0 1 -3.4479310344827585,-3.4479310344827585 v -27.583448275862064 a 3.4479310344827585,3.4479310344827585 0 0 1 3.4479310344827585,-3.4479310344827585 z"
     fill="currentColor"
     fill-rule="evenodd"
     id="path302" /><path
     d="M 162.07275862068963,0.0 h 27.58344827586207 a 10.343793103448276,10.343793103448276 0 0 1 10.343793103448276,10.343793103448276 v 27.58344827586207 a 10.343793103448276,10.343793103448276 0 0 1 -10.343793103448276,10.343793103448276 h -27.58344827586207 a 10.343793103448276,10.343793103448276 0 0 1 -10.343793103448276,-10.343793103448276 v -27.58344827586207 a 10.343793103448276,10.343793103448276 0 0 1 10.343793103448276,-10.343793103448276 z M 162.07275862068965,6.895862068965517 h 27.583448275862064 a 3.4479310344827585,3.4479310344827585 0 0 1 3.4479310344827585,3.4479310344827585 v 27.583448275862064 a 3.4479310344827585,3.4479310344827585 0 0 1 -3.4479310344827585,3.4479310344827585 h -27.583448275862064 a 3.4479310344827585,3.4479310344827585 0 0 1 -3.4479310344827585,-3.4479310344827585 v -27.583448275862064 a 3.4479310344827585,3.4479310344827585 0 0 1 3.4479310344827585,-3.4479310344827585 z"
     fill="currentColor"
     fill-rule="evenodd"
     id="path303" /><path
     d="M 10.343793103448276,151.72896551724136 h 27.58344827586207 a 10.343793103448276,10.343793103448276 0 0 1 10.343793103448276,10.343793103448276 v 27.58344827586207 a 10.343793103448276,10.343793103448276 0 0 1 -10.343793103448276,10.343793103448276 h -27.58344827586207 a 10.343793103448276,10.343793103448276 0 0 1 -10.343793103448276,-10.343793103448276 v -27.58344827586207 a 10.343793103448276,10.343793103448276 0 0 1 10.343793103448276,-10.343793103448276 z M 10.343793103448276,158.6248275862069 h 27.583448275862064 a 3.4479310344827585,3.4479310344827585 0 0 1 3.4479310344827585,3.4479310344827585 v 27.583448275862064 a 3.4479310344827585,3.4479310344827585 0 0 1 -3.4479310344827585,3.4479310344827585 h -27.583448275862064 a 3.4479310344827585,3.4479310344827585 0 0 1 -3.4479310344827585,-3.4479310344827585 v -27.583448275862064 a 3.4479310344827585,3.4479310344827585 0 0 1 3.4479310344827585,-3.4479310344827585 z"
     fill="currentColor"
     fill-rule="evenodd"
     id="path304" /><rect
     x="13.791724137931034"
     y="13.791724137931034"
     width="20.68758620689655"
     height="20.68758620689655"
     fill="currentColor"
     rx="3.4479310344827585"
     id="rect304" /><rect
     x="165.52068965517242"
     y="13.791724137931034"
     width="20.68758620689655"
     height="20.68758620689655"
     fill="currentColor"
     rx="3.4479310344827585"
     id="rect305" /><rect
     x="13.791724137931034"
     y="165.52068965517242"
     width="20.68758620689655"
     height="20.68758620689655"
     fill="currentColor"
     rx="3.4479310344827585"
     id="rect306" /></g><g
   id="g7"
   transform="matrix(0.2150703,0,0,0.2150703,74.14176,79.043874)"><path
     d="m 15.1975,67.7674 c 0,-30.2389 18.1891,-46.6034 39.5584,-49.334 16.1428,-2.0464 36.1501,-2.2745 59.7881,-2.2745 36.828,0 46.375,0.4562 60.015,1.8183 32.058,3.1804 50.696,22.9598 50.696,51.3805 v 3.6364 c 0,26.3746 -19.323,47.9719 -45.469,50.2399 -2.046,6.824 -5.227,13.64 -9.548,20.464 -10.003,15.458 -30.01,35.009 -66.838,35.009 h -7.2736 c -30.0109,0 -53.1987,-12.956 -67.0669,-36.6 C 16.7814,121.422 15.1912,98.4563 15.1912,67.7674 z M 32.2469,67.9899 c 0,29.3269 1.8185,48.1941 11.3658,65.6991 10.9098,20.235 30.6891,27.964 53.199,27.964 h 7.0453 c 29.554,0 43.879,-14.324 51.836,-26.824 3.865,-6.367 7.273,-13.412 9.091,-22.282 l 1.363,-5.683 h 8.185 c 18.189,0 33.876,-14.774 33.876,-33.6474 v -3.4084 c 0,-21.1413 -13.184,-32.2854 -36.15,-35.0095 -12.956,-1.1341 -20.686,-1.5903 -57.52,-1.5903 -24.7778,0 -42.5108,0.228 -55.9228,2.2744 -18.8669,2.7306 -26.3745,13.4123 -26.3745,32.5071 z"
     fill="currentColor"
     fill-rule="evenodd"
     id="path4-cup" /><path
     d="m 166.158,83.6801 c 0,2.7306 2.046,4.7771 5.683,4.7771 11.594,0 17.961,-6.5953 17.961,-17.5049 0,-10.9096 -6.367,-17.7328 -17.961,-17.7328 -3.637,0 -5.683,2.0462 -5.683,4.7768 v 25.6903 z"
     fill="currentColor"
     id="path6" /><path
     d="m 54.5321,82.3198 c 0,13.4122 7.5011,25.0062 17.0486,34.1042 6.3671,6.138 16.3708,12.506 23.1878,16.598 2.0462,1.135 4.0926,1.819 6.3675,1.819 2.73,0 4.998,-0.684 6.823,-1.819 6.823,-4.092 16.82,-10.46 22.96,-16.598 9.775,-9.092 17.276,-20.6857 17.276,-34.1042 0,-14.5525 -10.909,-27.5083 -26.596,-27.5083 -9.319,0 -15.687,4.7767 -20.463,11.3657 C 96.8147,59.582 90.2259,54.8115 80.9001,54.8115 c -15.9146,0 -26.3745,12.9558 -26.3745,27.5083"
     fill="currentColor"
     id="path7" /></g>
     </g></svg>
