<svg xmlns="http://www.w3.org/2000/svg" width="700" height="700" viewBox="290 288 700 700">
  <g fill="gray" stroke-miterlimit="10" font-family="none" font-size="none" font-weight="none">
    <path d="M477 328a347 347 0 0 1 414 66c56 58 91 134 98 215l1 49v225q-1 44-32 75-35 33-83 29c-25-1-50-14-66-31q-21-22-27-51-3-21-2-44V667l31-8 74-21q-17-6-35-10l-73-21-6-18c-9-23-20-39-38-56l-11-8c-54-40-129-35-177 10-45 42-47 89-45 147q0 19 1 39c6 28 28 51 57 56 13 2 21 0 36 3a105 105 0 0 1 78 78q5 20 3 39v91l-5-23q-11-30-36-49a104 104 0 0 0-144 14l-12 18q-31 39-81 40a105 105 0 0 1-106-94l-1-32V412l1-33a105 105 0 0 1 96-91h9c30 0 64 16 81 40"/>
    <path d="M634 568a70 70 0 1 1 12 140 70 70 0 0 1-12-140"/>
  </g>
</svg>
