<?xml version="1.0" encoding="UTF-8"?>
<svg height="16px" viewBox="0 0 16 16" width="16px" xmlns="http://www.w3.org/2000/svg">
    <path d="m 4 2 c -1.644531 0 -3 1.355469 -3 3 v 7 c 0 1.644531 1.355469 3 3 3 h 7 c 1.644531 0 3 -1.355469 3 -3 v -3 h -2 v 3 c 0 0.570312 -0.429688 1 -1 1 h -7 c -0.570312 0 -1 -0.429688 -1 -1 v -7 c 0 -0.570312 0.429688 -1 1 -1 h 3 v -2 z" fill="#2e3434" fill-opacity="0.960784"/>
    <path d="m 9 1 v 2 h 2.586 l -4.293 4.293 l 1.414 1.414 l 4.293 -4.293 v 2.586 h 2 v -6 z" fill="#2e3434" fill-opacity="0.960784"/>
</svg>